<svg xmlns="http://www.w3.org/2000/svg" xmlns:xlink="http://www.w3.org/1999/xlink" width="500" zoomAndPan="magnify" viewBox="0 0 375 374.999991" height="500" preserveAspectRatio="xMidYMid meet" version="1.0"><defs><g/></defs><rect x="-37.5" width="450" fill="#ffffff" y="-37.499999" height="449.999989" fill-opacity="1"/><rect x="-37.5" width="450" fill="#13c871" y="-37.499999" height="449.999989" fill-opacity="1"/><g fill="#ffffff" fill-opacity="1"><g transform="translate(77.892122, 201.288687)"><g><path d="M 2.421875 0 L 2.421875 -27.84375 L 20.859375 -27.84375 L 20.859375 -22.984375 L 8.3125 -22.984375 L 8.3125 -16.359375 L 19.625 -16.359375 L 19.625 -11.5 L 8.3125 -11.5 L 8.3125 0 Z M 2.421875 0 "/></g></g></g><g fill="#ffffff" fill-opacity="1"><g transform="translate(100.285173, 201.288687)"><g><path d="M 8.3125 -27.84375 L 8.3125 0 L 2.421875 0 L 2.421875 -27.84375 Z M 8.3125 -27.84375 "/></g></g></g><g fill="#ffffff" fill-opacity="1"><g transform="translate(111.026223, 201.288687)"><g><path d="M 1.359375 -22.984375 L 1.359375 -27.84375 L 24.21875 -27.84375 L 24.21875 -22.984375 L 15.703125 -22.984375 L 15.703125 0 L 9.890625 0 L 9.890625 -22.984375 Z M 1.359375 -22.984375 "/></g></g></g><g fill="#ffffff" fill-opacity="1"><g transform="translate(136.614405, 201.288687)"><g><path d="M 20.875 -18.84375 C 20.507812 -20.144531 19.820312 -21.164062 18.8125 -21.90625 C 17.8125 -22.644531 16.554688 -23.015625 15.046875 -23.015625 C 12.921875 -23.015625 11.195312 -22.226562 9.875 -20.65625 C 8.550781 -19.082031 7.890625 -16.847656 7.890625 -13.953125 C 7.890625 -11.035156 8.535156 -8.785156 9.828125 -7.203125 C 11.128906 -5.617188 12.890625 -4.828125 15.109375 -4.828125 C 17.066406 -4.828125 18.601562 -5.335938 19.71875 -6.359375 C 20.832031 -7.378906 21.410156 -8.75 21.453125 -10.46875 L 15.46875 -10.46875 L 15.46875 -14.90625 L 27.125 -14.90625 L 27.125 -11.390625 C 27.125 -8.953125 26.601562 -6.851562 25.5625 -5.09375 C 24.53125 -3.332031 23.109375 -1.976562 21.296875 -1.03125 C 19.492188 -0.09375 17.421875 0.375 15.078125 0.375 C 12.460938 0.375 10.164062 -0.195312 8.1875 -1.34375 C 6.21875 -2.5 4.679688 -4.144531 3.578125 -6.28125 C 2.484375 -8.414062 1.9375 -10.953125 1.9375 -13.890625 C 1.9375 -16.898438 2.507812 -19.472656 3.65625 -21.609375 C 4.8125 -23.753906 6.367188 -25.390625 8.328125 -26.515625 C 10.296875 -27.648438 12.503906 -28.21875 14.953125 -28.21875 C 17.054688 -28.21875 18.957031 -27.816406 20.65625 -27.015625 C 22.363281 -26.222656 23.757812 -25.117188 24.84375 -23.703125 C 25.9375 -22.296875 26.609375 -20.675781 26.859375 -18.84375 Z M 20.875 -18.84375 "/></g></g></g><g fill="#ffffff" fill-opacity="1"><g transform="translate(165.737607, 201.288687)"><g><path d="M 7.21875 0 L 0.90625 0 L 10.515625 -27.84375 L 18.109375 -27.84375 L 27.703125 0 L 21.390625 0 L 19.328125 -6.34375 L 9.28125 -6.34375 Z M 10.78125 -10.9375 L 17.84375 -10.9375 L 14.421875 -21.484375 L 14.203125 -21.484375 Z M 10.78125 -10.9375 "/></g></g></g><g fill="#ffffff" fill-opacity="1"><g transform="translate(194.371345, 201.288687)"><g><path d="M 1.359375 -22.984375 L 1.359375 -27.84375 L 24.21875 -27.84375 L 24.21875 -22.984375 L 15.703125 -22.984375 L 15.703125 0 L 9.890625 0 L 9.890625 -22.984375 Z M 1.359375 -22.984375 "/></g></g></g><g fill="#ffffff" fill-opacity="1"><g transform="translate(219.959527, 201.288687)"><g><path d="M 2.421875 0 L 2.421875 -27.84375 L 8.3125 -27.84375 L 8.3125 -16.359375 L 20.25 -16.359375 L 20.25 -27.84375 L 26.125 -27.84375 L 26.125 0 L 20.25 0 L 20.25 -11.5 L 8.3125 -11.5 L 8.3125 0 Z M 2.421875 0 "/></g></g></g><g fill="#ffffff" fill-opacity="1"><g transform="translate(248.525287, 201.288687)"><g><path d="M 2.421875 0 L 2.421875 -27.84375 L 21.171875 -27.84375 L 21.171875 -22.984375 L 8.3125 -22.984375 L 8.3125 -16.359375 L 20.21875 -16.359375 L 20.21875 -11.5 L 8.3125 -11.5 L 8.3125 -4.859375 L 21.234375 -4.859375 L 21.234375 0 Z M 2.421875 0 "/></g></g></g><g fill="#ffffff" fill-opacity="1"><g transform="translate(271.978848, 201.288687)"><g><path d="M 2.421875 0 L 2.421875 -27.84375 L 13.40625 -27.84375 C 16.5625 -27.84375 19.007812 -27.015625 20.75 -25.359375 C 22.5 -23.710938 23.375 -21.507812 23.375 -18.75 C 23.375 -16.84375 22.953125 -15.210938 22.109375 -13.859375 C 21.265625 -12.515625 20.046875 -11.503906 18.453125 -10.828125 L 24.375 0 L 17.875 0 L 12.609375 -9.875 L 8.3125 -9.875 L 8.3125 0 Z M 8.3125 -14.59375 L 12.296875 -14.59375 C 15.640625 -14.59375 17.3125 -15.976562 17.3125 -18.75 C 17.3125 -21.601562 15.632812 -23.03125 12.28125 -23.03125 L 8.3125 -23.03125 Z M 8.3125 -14.59375 "/></g></g></g></svg>