<svg width="220" height="87" viewBox="0 0 220 87" fill="none" xmlns="http://www.w3.org/2000/svg">
<rect y="0.539734" width="220" height="86.4603" fill="#13C871"/>
<path d="M63.504 51V38.6364H71.6901V40.7915H66.118V43.7376H71.1468V45.8928H66.118V51H63.504ZM76.0623 38.6364V51H73.4483V38.6364H76.0623ZM77.7421 40.7915V38.6364H87.8962V40.7915H84.1111V51H81.5273V40.7915H77.7421Z" fill="white"/>
<path d="M97.2022 42.6328C97.1176 42.339 96.9989 42.0794 96.846 41.854C96.693 41.6246 96.5059 41.4315 96.2845 41.2745C96.0672 41.1135 95.8177 40.9908 95.536 40.9062C95.2583 40.8217 94.9504 40.7795 94.6123 40.7795C93.9805 40.7795 93.4251 40.9364 92.9461 41.2504C92.4712 41.5643 92.101 42.0211 91.8353 42.6207C91.5697 43.2164 91.4369 43.9448 91.4369 44.8061C91.4369 45.6674 91.5677 46.3999 91.8293 47.0036C92.0909 47.6072 92.4612 48.0681 92.9401 48.386C93.419 48.6999 93.9845 48.8569 94.6365 48.8569C95.2281 48.8569 95.7332 48.7522 96.1517 48.543C96.5743 48.3297 96.8963 48.0298 97.1176 47.6435C97.343 47.2571 97.4557 46.8003 97.4557 46.2731L97.987 46.3516H94.7995V44.3835H99.9731V45.9411C99.9731 47.0277 99.7437 47.9614 99.2849 48.7422C98.8261 49.5189 98.1942 50.1186 97.3893 50.5412C96.5844 50.9598 95.6627 51.169 94.6244 51.169C93.4653 51.169 92.4471 50.9135 91.5697 50.4023C90.6923 49.8872 90.0082 49.1567 89.5171 48.2109C89.0302 47.2611 88.7867 46.1342 88.7867 44.8303C88.7867 43.8281 88.9316 42.9347 89.2213 42.1499C89.5151 41.361 89.9256 40.6929 90.4529 40.1456C90.9801 39.5982 91.5939 39.1817 92.2941 38.896C92.9944 38.6102 93.7531 38.4673 94.5701 38.4673C95.2703 38.4673 95.9223 38.57 96.526 38.7752C97.1297 38.9764 97.665 39.2622 98.1319 39.6325C98.6027 40.0027 98.9871 40.4434 99.2849 40.9545C99.5827 41.4616 99.7739 42.0211 99.8584 42.6328H97.2022ZM101.937 51V38.6364H110.268V40.7915H104.551V43.7376H109.839V45.8928H104.551V48.8448H110.292V51H101.937ZM111.875 40.7915V38.6364H122.029V40.7915H118.244V51H115.66V40.7915H111.875ZM123.701 51V38.6364H126.315V43.7376H131.622V38.6364H134.23V51H131.622V45.8928H126.315V51H123.701ZM136.385 51V38.6364H144.716V40.7915H138.999V43.7376H144.287V45.8928H138.999V48.8448H144.74V51H136.385ZM146.794 51V38.6364H151.672C152.606 38.6364 153.402 38.8034 154.063 39.1374C154.727 39.4674 155.232 39.9363 155.578 40.544C155.928 41.1477 156.103 41.8581 156.103 42.6751C156.103 43.4961 155.926 44.2024 155.572 44.794C155.218 45.3816 154.704 45.8324 154.032 46.1463C153.364 46.4602 152.555 46.6172 151.605 46.6172H148.34V44.5163H151.183C151.682 44.5163 152.096 44.4479 152.427 44.3111C152.757 44.1742 153.002 43.969 153.163 43.6953C153.328 43.4216 153.411 43.0816 153.411 42.6751C153.411 42.2646 153.328 41.9184 153.163 41.6367C153.002 41.355 152.755 41.1417 152.42 40.9968C152.09 40.8479 151.674 40.7734 151.171 40.7734H149.408V51H146.794ZM153.471 45.3736L156.544 51H153.658L150.652 45.3736H153.471Z" fill="#2F2F2F"/>
</svg>
